<svg xmlns="http://www.w3.org/2000/svg" width="100" height="100" viewBox="0 0 50 50">
  <path d="M25 2C12.31 2 2 12.31 2 25s10.31 23 23 23 23-10.31 23-23S37.69 2 25 2zm0 2c11.61 0 21 9.39 21 21s-9.39 21-21 21a21.06 21.06 0 0 1-6.104-.902c.86-1.439 1.971-3.494 2.413-5.192.262-1.006 1.34-5.111 1.34-5.111.7 1.337 2.746 2.469 4.925 2.469 6.484 0 11.158-5.963 11.158-13.373 0-7.104-5.797-12.418-13.255-12.418-9.28 0-14.206 6.228-14.206 13.01 0 3.153 1.678 7.08 4.364 8.33.407.189.625.107.719-.288.071-.299.434-1.758.597-2.437.052-.217.027-.404-.148-.617-.89-1.079-1.602-3.06-1.602-4.907 0-4.742 3.59-9.332 9.707-9.332 5.282 0 8.98 3.6 8.98 8.748 0 5.816-2.936 9.846-6.757 9.846-2.11 0-3.69-1.746-3.184-3.887.608-2.555 1.782-5.312 1.782-7.158 0-1.65-.886-3.027-2.721-3.027-2.158 0-3.89 2.23-3.89 5.22 0 1.903.644 3.192.644 3.192s-2.131 9.01-2.522 10.688c-.39 1.675-.286 3.932-.125 5.613C9.421 41.352 4 33.819 4 25 4 13.39 13.39 4 25 4z"/>
</svg>
