<svg xmlns="http://www.w3.org/2000/svg" width="100" height="100" viewBox="0 0 50 50">
  <path d="M29 3c-.938 0-1.836.383-2.5 1-.664.617-1.137 1.434-1.5 2.406-.645 1.735-.914 3.989-.969 6.625-4.797.149-9.21 1.39-12.75 3.438a5.512 5.512 0 0 0-7.688.125 5.505 5.505 0 0 0 0 7.812l.25.25C3.314 26.036 3 27.488 3 29c0 4.527 2.566 8.586 6.563 11.438C13.559 43.288 19.008 45 25 45c5.992 0 11.441-1.71 15.438-4.563C44.434 37.587 47 33.528 47 29c0-1.512-.313-2.965-.844-4.344l.25-.25a5.505 5.505 0 0 0 0-7.812 5.512 5.512 0 0 0-7.687-.125C35.195 14.434 30.8 13.19 26.03 13.03c.063-2.484.332-4.562.844-5.937.29-.778.652-1.336 1-1.657C28.223 5.117 28.539 5 29 5c.46 0 .684.125 1.031.406.348.282.754.742 1.282 1.282.94.964 2.382 2.027 4.78 2.25C36.54 11.238 38.575 13 41 13c2.75 0 5-2.25 5-5s-2.25-5-5-5c-2.395 0-4.426 1.71-4.906 3.969-1.782-.172-2.567-.86-3.344-1.657-.45-.46-.863-1-1.438-1.468A3.671 3.671 0 0 0 29 3Zm12 2c1.668 0 3 1.332 3 3s-1.332 3-3 3-3-1.332-3-3 1.332-3 3-3ZM25 15c5.61 0 10.676 1.613 14.281 4.188C42.887 21.761 45 25.227 45 29c0 3.773-2.113 7.238-5.719 9.813C35.676 41.386 30.61 43 25 43c-5.61 0-10.676-1.613-14.281-4.188C7.113 36.239 5 32.773 5 29c0-3.773 2.113-7.238 5.719-9.813C14.324 16.614 19.39 15 25 15ZM7.5 16.938c.703 0 1.414.21 2.031.656-2.004 1.437-3.644 3.176-4.781 5.125C3.582 21.297 3.66 19.339 5 18c.715-.715 1.61-1.063 2.5-1.063Zm35 0c.89 0 1.785.347 2.5 1.062 1.34 1.34 1.418 3.297.25 4.719-1.137-1.95-2.777-3.688-4.781-5.125a3.457 3.457 0 0 1 2.031-.657ZM17 22c-2.2 0-4 1.8-4 4s1.8 4 4 4 4-1.8 4-4-1.8-4-4-4Zm16 0c-2.2 0-4 1.8-4 4s1.8 4 4 4 4-1.8 4-4-1.8-4-4-4Zm-16 2c1.117 0 2 .883 2 2s-.883 2-2 2-2-.883-2-2 .883-2 2-2Zm16 0c1.117 0 2 .883 2 2s-.883 2-2 2-2-.883-2-2 .883-2 2-2Zm1.156 9.844a1.006 1.006 0 0 0-.156.031c-.316.063-.582.27-.719.563 0 0-.523.726-1.843 1.562-1.32.836-3.38 1.688-6.438 1.688-3.059 0-5.117-.852-6.438-1.688-1.32-.836-1.843-1.563-1.843-1.563A.998.998 0 0 0 15.656 34a1 1 0 0 0-.562 1.563s.77 1.109 2.375 2.124c1.605 1.016 4.09 2 7.531 2s5.926-.984 7.531-2c1.606-1.015 2.375-2.124 2.375-2.124a1 1 0 0 0-.75-1.72Z"/>
</svg>