<svg xmlns="http://www.w3.org/2000/svg" width="100" height="100" viewBox="0 0 50 50">
  <path d="m25 2-.219.002.016 2L25 4c1.529 0 3.054.165 4.533.492l.434-1.953A23.074 23.074 0 0 0 25 2zm-2.305.113c-1.74.174-3.453.548-5.097 1.11l.644 1.892a20.791 20.791 0 0 1 4.653-1.011l-.2-1.99zm9.29.973-.608 1.904a20.393 20.393 0 0 1 4.328 1.967l1.035-1.71a22.399 22.399 0 0 0-4.756-2.161zm-16.337.906a22.248 22.248 0 0 0-4.476 2.686l1.223 1.582a20.243 20.243 0 0 1 4.076-2.446l-.823-1.822zm22.829 2.42L37.285 8.02a19.763 19.763 0 0 1 3.447 3.263l1.541-1.273a21.774 21.774 0 0 0-3.796-3.598zM25 7C15.626 7 8 14.178 8 23c0 5.129 2.606 9.926 7 12.938V41a.998.998 0 0 0 1.498.865l5.432-3.127A18.13 18.13 0 0 0 25 39c9.374 0 17-7.178 17-16S34.374 7 25 7zM9.578 8.037a21.362 21.362 0 0 0-3.35 4.02l1.684 1.08a19.344 19.344 0 0 1 3.035-3.643L9.578 8.037zM25 9c8.271 0 15 6.28 15 14s-6.729 14-15 14a16.19 16.19 0 0 1-3.063-.293 1.006 1.006 0 0 0-.689.115L17 39.27V35.4a1 1 0 0 0-.463-.841C12.443 31.942 10 27.62 10 23c0-7.72 6.729-14 15-14zm18.53 2.69-1.66 1.115a18.59 18.59 0 0 1 2.118 4.226l1.89-.66a20.68 20.68 0 0 0-2.349-4.682zM5.185 13.878a20.192 20.192 0 0 0-1.748 4.943l1.957.416a18.16 18.16 0 0 1 1.574-4.455l-1.783-.904zm41.28 4.514-1.946.457a18.115 18.115 0 0 1 .47 4.699l2 .06a20.174 20.174 0 0 0-.523-5.217zM3.11 20.9a20.106 20.106 0 0 0 .137 5.242l1.977-.312a18.193 18.193 0 0 1-.125-4.723l-1.99-.207zm41.727 4.538a18.046 18.046 0 0 1-1.24 4.556l1.845.774a20.03 20.03 0 0 0 1.377-5.063l-1.982-.267zm-39.22 2.246-1.932.515a20.376 20.376 0 0 0 1.994 4.85l1.736-.992a18.458 18.458 0 0 1-1.799-4.373zm37.16 4.02a19.076 19.076 0 0 1-2.77 3.845l1.467 1.36a21.156 21.156 0 0 0 3.058-4.249l-1.756-.957zM8.436 33.655 6.81 34.817a21.264 21.264 0 0 0 3.236 3.586l.41 4.024 1.992-.203-.453-4.418a1.005 1.005 0 0 0-.348-.66 19.33 19.33 0 0 1-3.21-3.49zm30.21 3.221a20.165 20.165 0 0 1-3.9 2.71l.94 1.765a22.211 22.211 0 0 0 4.288-2.98l-1.329-1.495zm-5.624 3.525c-1.46.61-3 1.053-4.572 1.315l.328 1.972a22.723 22.723 0 0 0 5.016-1.441l-.772-1.846zM22.847 41.89a1.04 1.04 0 0 0-.508.08l-1.014.449.813 1.828.771-.344c1.27.115 2.554.124 3.795.033l-.146-1.994a21.624 21.624 0 0 1-3.711-.052zM19.5 43.232l-4.572 2.028.81 1.828 4.573-2.027-.811-1.829zm-6.848.98-1.99.206.344 3.336a1 1 0 0 0 1.398.81l1.506-.668-.81-1.828-.246.11-.202-1.965z"/>
</svg>