<svg xmlns="http://www.w3.org/2000/svg" width="100" height="100" viewBox="0 0 50 50">
  <path d="M27 4c-3.854 0-7 3.146-7 7 0 .694.11 1.364.299 2H5c-1.645 0-3 1.355-3 3v18c0 1.645 1.355 3 3 3h11.05c.509 5.596 5.224 10 10.95 10 5.12 0 9.241-3.59 10.46-8.336C38.644 39.441 39.985 40 41.5 40c4.13 0 7.5-3.37 7.5-7.5V21a1 1 0 0 0-1-1H26v-2.076c.328.047.66.076 1 .076 3.854 0 7-3.146 7-7s-3.146-7-7-7zm0 2c2.774 0 5 2.226 5 5s-2.226 5-5 5a5.02 5.02 0 0 1-1.012-.111C25.928 14.295 24.607 13 23 13h-.578A4.953 4.953 0 0 1 22 11c0-2.774 2.226-5 5-5zm15 2c-1.583 0-2.898.63-3.748 1.586C37.402 10.542 37 11.778 37 13s.402 2.458 1.252 3.414S40.417 18 42 18c1.583 0 2.898-.63 3.748-1.586C46.598 15.458 47 14.222 47 13s-.402-2.458-1.252-3.414S43.583 8 42 8zm0 2c1.083 0 1.769.37 2.252.914.483.544.748 1.308.748 2.086 0 .778-.265 1.542-.748 2.086-.483.544-1.169.914-2.252.914-1.083 0-1.769-.37-2.252-.914C39.265 14.542 39 13.778 39 13c0-.778.265-1.542.748-2.086C40.231 10.37 40.917 10 42 10zM5 15h18c.565 0 1 .435 1 1v.365a1 1 0 0 0 0 .555v3.912a1 1 0 0 0 0 .326V34c0 .565-.435 1-1 1h-5.832a1 1 0 0 0-.326 0H5c-.565 0-1-.435-1-1V16c0-.565.435-1 1-1zm4 4v2h4v10h2V21h4v-2H9zm17 3h10v14c0 4.983-4.017 9-9 9a8.981 8.981 0 0 1-8.941-8H23c1.645 0 3-1.355 3-3V22zm12 0h9v10.5c0 3.05-2.45 5.5-5.5 5.5-1.403 0-2.649-.549-3.62-1.408.013-.207.12-.382.12-.592V22z"/>
</svg>