<svg xmlns="http://www.w3.org/2000/svg" width="100" height="100" viewBox="0 0 50 50">
  <path d="M6.781 2c-.011.004-.02.027-.031.031-.027.004-.066-.008-.094 0a1.01 1.01 0 0 0-.562.25C5.422 2.648 5 3.402 5 4.22V46c0 .621.273 1.273.781 1.656.235.262.59.38.938.313a2.46 2.46 0 0 0 1.343-.313c.848-.492 18.157-10.5 18.157-10.5l9.031-5.218a.466.466 0 0 0 .063-.032l.124-.062s.122-.063.126-.063l.03-.031 8.688-5c.703-.406 1.262-1.066 1.25-1.875-.011-.809-.582-1.438-1.218-1.781a372.197 372.197 0 0 1-4.75-2.719 929.392 929.392 0 0 1-4.126-2.406l-9.218-5.313-17.75-10.25c-.348-.199-.742-.36-1.125-.406a1.939 1.939 0 0 0-.563 0ZM7 4.688l20.375 20.218L7 45.125Zm4.75 1.906c5.086 2.937 13.469 7.781 13.469 7.781l8.062 4.656-4.5 4.469Zm23.313 13.468c.48.282 1.703.993 3.5 2.032 2.117 1.226 4.289 2.468 4.812 2.75.05.027.035.043.063.062-.04.028-.051.035-.157.094-.96.555-7.191 4.172-8.187 4.75l-4.907-4.844Zm-6.282 6.22 4.532 4.5-8.094 4.655s-8.164 4.711-13.438 7.75Z"/>
</svg>