<svg xmlns="http://www.w3.org/2000/svg" width="101" height="101" fill="none">
  <mask id="a" width="101" height="101" x="0" y="0" maskUnits="userSpaceOnUse" style="mask-type:luminance">
    <path fill="#fff" d="M100.4.7H.4v100h100V.7Z"/>
  </mask>
  <g mask="url(#a)">
    <path fill="#fff" d="M68.402.7H.4v68.336L32.064 100.7H100.4V32.698L68.402.7Z"/>
    <path fill="#F49819" d="m67.583 2.795 30.753 30.753v65.088H32.914l-30.42-30.45V2.795h65.089ZM68.403.7H.4v68.336L32.064 100.7H100.4V32.698L68.402.7Z"/>
    <path fill="#242E3D" d="M16.642 57.014v3.674h-2.065V50.7h3.825a3.537 3.537 0 0 1 2.49.82c.486.455.82 1.062.94 1.7a3.283 3.283 0 0 1-.212 1.943 3.2 3.2 0 0 1-1.305 1.457 3.006 3.006 0 0 1-1.913.395h-1.76Zm0-1.578h1.548c.212.03.425 0 .607-.06a1.39 1.39 0 0 0 .516-.335 2 2 0 0 0 .364-1.153c0-.425-.121-.82-.364-1.154a1.667 1.667 0 0 0-1.123-.425h-1.518l-.03 3.127Zm13.934 5.252-.668-2.216h-3.4l-.668 2.216h-2.216l3.491-9.988h2.429l3.4 9.988h-2.368Zm-3.673-3.825h2.49l-1.246-4.16-1.244 4.16Zm9.016 3.825V50.7h3.825a3.538 3.538 0 0 1 2.49.82c.576.576.91 1.396.91 2.216 0 .577-.182 1.123-.516 1.578-.334.486-.789.85-1.336 1.124l2.49 4.31h-2.216l-2.216-3.916h-1.427v3.825h-2.004v.03Zm2.065-5.434H39.5c.183.03.334.03.517-.03.182-.031.333-.122.455-.213.152-.091.243-.243.334-.395a1.34 1.34 0 0 0 .182-.486v-.425c.06-.334-.03-.698-.243-.971a1.383 1.383 0 0 0-.88-.516h-1.822v3.066l-.06-.03Zm10.928 5.434V52.43h-3.096V50.7h8.257v1.73h-3.096v8.258h-2.065Zm10.413-6.922v6.922h-1.912V50.7h2.337l4.068 7.013V50.7h1.913v9.988h-2.338l-4.068-6.922Zm10.261 6.922V50.7h6.588v1.67h-4.432v2.337h3.582v1.67h-3.582v2.671h4.432v1.67h-6.588v-.03Zm10.383 0V50.7h3.825a3.54 3.54 0 0 1 2.49.82c.576.576.91 1.396.91 2.216a2.85 2.85 0 0 1-.486 1.578c-.334.486-.789.85-1.335 1.124l2.489 4.31h-2.216l-2.216-3.916h-1.397v3.825H79.97v.03Zm2.095-5.434h1.487c.334.06.698-.03.972-.243.273-.213.455-.516.516-.88v-.425c.06-.335-.03-.699-.243-.972a1.393 1.393 0 0 0-.85-.516h-1.913l.03 3.036ZM22.622 23.59c-.03.334.03.698.182 1.002.091.243.243.577.334.82.03.03.061.09.061.121 0 .03.03.091 0 .121 0 .152-.091.243-.243.334l-.759.486h-.243c-.06 0-.121 0-.182-.03-.06-.03-.121-.06-.152-.122a3.24 3.24 0 0 1-.425-.485c-.121-.213-.242-.425-.334-.668a4.36 4.36 0 0 1-1.487 1.184 4.352 4.352 0 0 1-1.852.425c-.395.03-.82-.03-1.214-.182a2.882 2.882 0 0 1-1.033-.668c-.273-.304-.516-.638-.637-1.033a2.689 2.689 0 0 1-.182-1.183c0-.425.06-.88.243-1.276a3.25 3.25 0 0 1 .759-1.062c.789-.607 1.76-.91 2.762-.91.365 0 .76.03 1.123.09l1.245.243v-.82c.03-.334.03-.667-.06-.971a2.31 2.31 0 0 0-.456-.85 1.84 1.84 0 0 0-.88-.425 2.085 2.085 0 0 0-.972-.06c-.425.03-.85.06-1.244.151-.425.091-.85.243-1.245.425-.152.091-.243.091-.425.182h-.152c-.152 0-.243-.09-.243-.334v-.607a.97.97 0 0 1 .091-.425c.091-.091.213-.182.334-.243a3.835 3.835 0 0 1 1.397-.486 6.844 6.844 0 0 1 1.76-.242 4.05 4.05 0 0 1 2.915.91c.334.365.577.82.729 1.275.151.486.212.972.182 1.458l.303 3.855Zm-4.553 1.67c.364-.03.758-.06 1.123-.152.425-.182.79-.425 1.123-.759.212-.212.334-.486.425-.759.06-.334.091-.668.091-1.002v-.516a9.858 9.858 0 0 0-2.095-.243 2.52 2.52 0 0 0-1.67.425 1.87 1.87 0 0 0-.546 1.215c-.03.455.122.91.395 1.275.121.182.303.334.516.425.212.09.425.121.668.06h-.03v.03Zm9.077 1.275c-.152 0-.334 0-.425-.091a1.935 1.935 0 0 1-.243-.425l-2.672-8.743a.97.97 0 0 1-.09-.425c0-.152.09-.243.15-.243h1.124c.152 0 .334 0 .425.09.122.122.182.274.243.426l1.913 7.407 1.76-7.407c0-.091.03-.152.061-.243a.516.516 0 0 1 .182-.182.97.97 0 0 1 .425-.091h.911c.152-.03.304 0 .425.09.091.122.182.274.243.426l1.76 7.59 1.913-7.59c0-.091.03-.182.061-.243a.514.514 0 0 1 .182-.182.97.97 0 0 1 .425-.091h1.123c.152 0 .243.09.243.182v.243c0 .09-.09.151-.09.243l-2.672 8.652c0 .09-.03.182-.061.243-.03.06-.122.121-.182.182-.091.151-.243.151-.425.151h-1.002c-.152 0-.334 0-.425-.09-.091-.092-.152-.243-.243-.426l-1.76-7.255-1.731 7.255c0 .091-.03.183-.06.243-.031.061-.122.122-.183.182a.612.612 0 0 1-.334.091h-.971v.03Zm14.42.334a11.1 11.1 0 0 1-1.73-.152 6.847 6.847 0 0 1-1.336-.425.826.826 0 0 1-.304-.243c-.06-.121-.121-.273-.091-.395v-.576c0-.243.091-.334.243-.334h.152c.09 0 .151.09.242.09.395.183.82.304 1.245.426.425.09.88.152 1.336.152a2.985 2.985 0 0 0 1.67-.425 1.3 1.3 0 0 0 .425-.486c.09-.182.151-.395.151-.638a.667.667 0 0 0-.06-.425.949.949 0 0 0-.273-.334c-.334-.273-.699-.485-1.124-.576l-1.67-.486a3.7 3.7 0 0 1-1.821-1.123 2.781 2.781 0 0 1-.577-1.67c0-.455.122-.88.334-1.245.456-.728 1.184-1.245 2.004-1.487a3.693 3.693 0 0 1 1.396-.183c.243 0 .516.03.76.092.242.03.515.06.758.151s.425.091.668.152c.243.091.334.091.486.152.121.06.243.152.334.243.06.121.09.273.09.425v.486c0 .242-.09.334-.242.334a.726.726 0 0 1-.425-.152 5.064 5.064 0 0 0-2.216-.425c-.516 0-1.032.09-1.488.334a.96.96 0 0 0-.516 1.001c0 .152 0 .304.06.456a.83.83 0 0 0 .274.364c.334.334.79.516 1.245.577l1.578.486c.668.212 1.275.576 1.73 1.123.335.455.517 1.032.486 1.579 0 .455-.09.94-.333 1.335a2.653 2.653 0 0 1-.82 1.002c-.395.273-.82.486-1.245.668-.455.121-.94.152-1.427.152h.03Z"/>
    <path fill="#F49819" d="M43.752 32.273a24.419 24.419 0 0 1-13.753 4.159 24.98 24.98 0 0 1-16.758-6.436c-.333-.334 0-.76.426-.486a32.793 32.793 0 0 0 16.757 4.493c4.402-.03 8.774-.88 12.842-2.58.546-.243 1.093.425.486.85Zm.576 2.52c-.151.333.182.485.516.242 2.004-1.67 2.49-5.16 2.065-5.677-.425-.486-3.916-.91-6.011.577-.334.243-.243.577.091.486 1.123-.152 3.855-.486 4.341.182.486.698-.577 3.096-1.002 4.19Z"/>
  </g>
</svg>
