<svg xmlns="http://www.w3.org/2000/svg" xmlns:xlink="http://www.w3.org/1999/xlink" xml:space="preserve" id="katman_1" x="0" y="0" version="1.0" viewBox="0 0 600 450">
  <style>
    .st2{fill:#f49819}
  </style>
  <defs>
    <path id="SVGID_1_" d="M135.4 60.7h329.4v329.4H135.4z"/>
  </defs>
  <clipPath id="SVGID_00000166667540916793299640000012248384598960821141_">
    <use xlink:href="#SVGID_1_" overflow="visible"/>
  </clipPath>
  <g clip-path="url(#SVGID_00000166667540916793299640000012248384598960821141_)">
    <path fill="#fff" d="M359.4 60.7h-224v225.1l104.3 104.3h225.1v-224L359.4 60.7z"/>
    <path d="M356.7 67.6 458 168.9v214.4H242.5L142.3 283V67.6h214.4zm2.7-6.9h-224v225.1l104.3 104.3h225.1v-224L359.4 60.7z" class="st2"/>
    <path fill="#242e3d" d="M188.9 246.2v12.1h-6.8v-32.9h12.6c3-.2 5.9.8 8.2 2.7 1.6 1.5 2.7 3.5 3.1 5.6s.2 4.4-.7 6.4c-.9 2-2.4 3.7-4.3 4.8-1.9 1.1-4.1 1.6-6.3 1.3h-5.8zm0-5.2h5.1c.7.1 1.4 0 2-.2.6-.2 1.2-.6 1.7-1.1.8-1.1 1.2-2.5 1.2-3.8 0-1.4-.4-2.7-1.2-3.8-1-.9-2.3-1.4-3.7-1.4h-5l-.1 10.3zm45.9 17.3-2.2-7.3h-11.2l-2.2 7.3h-7.3l11.5-32.9h8l11.2 32.9h-7.8zm-12.1-12.6h8.2l-4.1-13.7-4.1 13.7zm29.7 12.6v-32.9H265c3-.2 5.9.8 8.2 2.7 1.9 1.9 3 4.6 3 7.3 0 1.9-.6 3.7-1.7 5.2-1.1 1.6-2.6 2.8-4.4 3.7l8.2 14.2H271l-7.3-12.9H259v12.6h-6.6zm6.8-17.9h5c.6.1 1.1.1 1.7-.1.6-.1 1.1-.4 1.5-.7.5-.3.8-.8 1.1-1.3.3-.5.5-1 .6-1.6v-1.4c.2-1.1-.1-2.3-.8-3.2-.7-.9-1.7-1.5-2.9-1.7h-6v10.1l-.2-.1zm36 17.9v-27.2H285v-5.7h27.2v5.7H302v27.2h-6.8zm34.3-22.8v22.8h-6.3v-32.9h7.7l13.4 23.1v-23.1h6.3v32.9h-7.7l-13.4-22.8zm33.8 22.8v-32.9H385v5.5h-14.6v7.7h11.8v5.5h-11.8v8.8H385v5.5h-21.7zm34.2 0v-32.9h12.6c3-.2 5.9.8 8.2 2.7 1.9 1.9 3 4.6 3 7.3 0 1.9-.6 3.7-1.6 5.2-1.1 1.6-2.6 2.8-4.4 3.7l8.2 14.2h-7.3l-7.3-12.9h-4.6v12.6h-6.8zm6.9-17.9h4.9c1.1.2 2.3-.1 3.2-.8.9-.7 1.5-1.7 1.7-2.9v-1.4c.2-1.1-.1-2.3-.8-3.2-.7-.9-1.7-1.5-2.8-1.7h-6.3l.1 10zM208.6 136.1c-.1 1.1.1 2.3.6 3.3.3.8.8 1.9 1.1 2.7.1.1.2.3.2.4 0 .1.1.3 0 .4 0 .5-.3.8-.8 1.1l-2.5 1.6h-.8c-.2 0-.4 0-.6-.1-.2-.1-.4-.2-.5-.4-.5-.5-1-1-1.4-1.6-.4-.7-.8-1.4-1.1-2.2-1.3 1.6-3 3-4.9 3.9-1.9.9-4 1.4-6.1 1.4-1.3.1-2.7-.1-4-.6-1.3-.5-2.4-1.2-3.4-2.2-.9-1-1.7-2.1-2.1-3.4-.5-1.3-.7-2.6-.6-3.9 0-1.4.2-2.9.8-4.2.6-1.3 1.4-2.5 2.5-3.5 2.6-2 5.8-3 9.1-3 1.2 0 2.5.1 3.7.3l4.1.8v-2.7c.1-1.1.1-2.2-.2-3.2-.3-1-.8-2-1.5-2.8-.8-.7-1.8-1.2-2.9-1.4-1-.3-2.1-.4-3.2-.2-1.4.1-2.8.2-4.1.5-1.4.3-2.8.8-4.1 1.4-.5.3-.8.3-1.4.6h-.5c-.5 0-.8-.3-.8-1.1v-2c0-.5.1-1 .3-1.4.3-.3.7-.6 1.1-.8 1.4-.8 3-1.4 4.6-1.6 1.9-.5 3.8-.8 5.8-.8 3.5-.3 6.9.8 9.6 3 1.1 1.2 1.9 2.7 2.4 4.2.5 1.6.7 3.2.6 4.8l1 12.7zm-15 5.5c1.2-.1 2.5-.2 3.7-.5 1.4-.6 2.6-1.4 3.7-2.5.7-.7 1.1-1.6 1.4-2.5.2-1.1.3-2.2.3-3.3v-1.7c-2.3-.5-4.6-.8-6.9-.8-1.9-.2-3.9.3-5.5 1.4-1.1 1.1-1.7 2.5-1.8 4-.1 1.5.4 3 1.3 4.2.4.6 1 1.1 1.7 1.4.7.3 1.4.4 2.2.2h-.1zm29.9 4.2c-.5 0-1.1 0-1.4-.3-.3-.4-.6-.9-.8-1.4l-8.8-28.8c-.2-.4-.3-.9-.3-1.4 0-.5.3-.8.5-.8h3.7c.5 0 1.1 0 1.4.3.4.4.6.9.8 1.4l6.3 24.4 5.8-24.4c0-.3.1-.5.2-.8.1-.2.3-.4.6-.6.4-.2.9-.3 1.4-.3h3c.5-.1 1 0 1.4.3.3.4.6.9.8 1.4l5.8 25 6.3-25c0-.3.1-.6.2-.8.1-.2.3-.4.6-.6.4-.2.9-.3 1.4-.3h3.7c.5 0 .8.3.8.6v.8c0 .3-.3.5-.3.8l-8.8 28.5c0 .3-.1.6-.2.8-.1.2-.4.4-.6.6-.3.5-.8.5-1.4.5h-3.3c-.5 0-1.1 0-1.4-.3-.3-.3-.5-.8-.8-1.4l-5.8-23.9-5.7 23.9c0 .3-.1.6-.2.8-.1.2-.4.4-.6.6-.3.2-.7.3-1.1.3h-3.2zm47.5 1.1c-1.9 0-3.8-.2-5.7-.5-1.5-.3-3-.8-4.4-1.4-.4-.2-.8-.5-1-.8-.2-.4-.4-.9-.3-1.3V141c0-.8.3-1.1.8-1.1h.5c.3 0 .5.3.8.3 1.3.6 2.7 1 4.1 1.4 1.4.3 2.9.5 4.4.5 1.9.1 3.8-.4 5.5-1.4.6-.4 1.1-1 1.4-1.6.3-.6.5-1.3.5-2.1.1-.5 0-1-.2-1.4-.2-.4-.5-.8-.9-1.1-1.1-.9-2.3-1.6-3.7-1.9l-5.5-1.6c-2.3-.6-4.4-1.9-6-3.7-1.2-1.6-1.9-3.5-1.9-5.5 0-1.5.4-2.9 1.1-4.1 1.5-2.4 3.9-4.1 6.6-4.9 1.5-.5 3.1-.7 4.6-.6.8 0 1.7.1 2.5.3.8.1 1.7.2 2.5.5s1.4.3 2.2.5c.8.3 1.1.3 1.6.5.4.2.8.5 1.1.8.2.4.3.9.3 1.4v1.6c0 .8-.3 1.1-.8 1.1s-1-.2-1.4-.5c-2.3-1-4.8-1.5-7.3-1.4-1.7 0-3.4.3-4.9 1.1-.6.3-1.1.8-1.4 1.4-.3.6-.4 1.3-.3 1.9 0 .5 0 1 .2 1.5s.5.9.9 1.2c1.1 1.1 2.6 1.7 4.1 1.9l5.2 1.6c2.2.7 4.2 1.9 5.7 3.7 1.1 1.5 1.7 3.4 1.6 5.2 0 1.5-.3 3.1-1.1 4.4-.6 1.3-1.6 2.5-2.7 3.3-1.3.9-2.7 1.6-4.1 2.2-1.5.4-3.1.5-4.7.5z"/>
    <path d="M278.2 164.7c-13.4 9-29.2 13.8-45.3 13.7-20.4 0-40-7.5-55.2-21.2-1.1-1.1 0-2.5 1.4-1.6 16.7 9.8 35.8 14.9 55.2 14.8 14.5-.1 28.9-2.9 42.3-8.5 1.8-.8 3.6 1.4 1.6 2.8zm1.9 8.3c-.5 1.1.6 1.6 1.7.8 6.6-5.5 8.2-17 6.8-18.7-1.4-1.6-12.9-3-19.8 1.9-1.1.8-.8 1.9.3 1.6 3.7-.5 12.7-1.6 14.3.6 1.6 2.3-1.9 10.2-3.3 13.8z" class="st2"/>
  </g>
</svg>
