<svg xmlns="http://www.w3.org/2000/svg" width="100" height="100" fill="none">
  <path fill="#EDEDED" d="M0 95.192V4.808C0 2.153 2.14 0 4.782 0h90.436C97.86 0 100 2.153 100 4.808v90.384c0 2.655-2.14 4.808-4.782 4.808H4.783C2.14 100 0 97.847 0 95.192Z"/>
  <path fill="#EA4335" d="m55.767 24.852 1.352.025 3.673-3.693.179-1.564c-2.919-2.61-6.759-4.2-10.962-4.2-7.612 0-14.034 5.205-15.938 12.262.402-.28 1.257-.07 1.257-.07l7.34-1.213s.38-.628.568-.589a9.134 9.134 0 0 1 6.772-3.01 9.1 9.1 0 0 1 5.76 2.052Z"/>
  <path fill="#4285F4" d="M65.948 27.692a16.652 16.652 0 0 0-4.981-8.075l-5.204 5.232a9.229 9.229 0 0 1 3.419 7.176v.922c2.529 0 4.587 2.07 4.587 4.613 0 2.543-2.058 4.613-4.588 4.613h-9.174l-.919.928v5.537l.919.918h9.174c6.576 0 11.927-5.38 11.927-11.993 0-4.09-2.047-7.705-5.162-9.87h.002Z"/>
  <path fill="#34A853" d="M40.834 49.555h9.168v-7.38h-9.166c-.674 0-1.312-.15-1.89-.414l-1.32.407-3.675 3.695-.321 1.246a11.837 11.837 0 0 0 7.207 2.448l-.003-.002Z"/>
  <path fill="#FBBC05" d="M40.834 25.568c-6.576 0-11.927 5.38-11.927 11.993a12 12 0 0 0 4.724 9.552l5.32-5.35a4.617 4.617 0 0 1-2.704-4.202c0-2.543 2.058-4.612 4.587-4.612a4.587 4.587 0 0 1 4.178 2.719l5.32-5.35c-2.179-2.883-5.626-4.75-9.498-4.75Z"/>
  <path fill="#5F6368" d="M30.484 84.96v-8.857h3.05c.394 0 .766.067 1.114.197.348.133.654.318.916.558.262.239.47.527.621.86.151.332.227.703.227 1.107a2.594 2.594 0 0 1-.848 1.954 2.84 2.84 0 0 1-.916.557 3.086 3.086 0 0 1-1.113.198h-1.66v3.426h-1.392Zm3.087-4.762c.23 0 .436-.04.615-.118a1.36 1.36 0 0 0 .74-.761 1.36 1.36 0 0 0 .097-.494 1.377 1.377 0 0 0-.38-.946 1.472 1.472 0 0 0-1.07-.439h-1.7v2.76l1.698-.001Zm7.426 4.021h-.073c-.18.239-.415.455-.702.65-.287.192-.652.29-1.095.29-.32 0-.619-.052-.897-.154a2.2 2.2 0 0 1-.726-.434 2.075 2.075 0 0 1-.486-.656 1.925 1.925 0 0 1-.179-.834c0-.323.064-.61.191-.865.128-.255.304-.47.53-.643a2.51 2.51 0 0 1 .804-.401 3.467 3.467 0 0 1 1.009-.142 3.69 3.69 0 0 1 1.623.334v-.236a1.12 1.12 0 0 0-.117-.506 1.183 1.183 0 0 0-.32-.401 1.545 1.545 0 0 0-.462-.26 1.56 1.56 0 0 0-.542-.093c-.303 0-.576.06-.817.18s-.457.31-.646.575l-1.082-.718a2.78 2.78 0 0 1 1.07-.898 3.36 3.36 0 0 1 1.452-.302c.894 0 1.585.222 2.073.668.488.446.732 1.08.732 1.906v3.686h-1.341v-.746Zm0-1.78a2.68 2.68 0 0 0-.602-.26 2.705 2.705 0 0 0-.762-.099c-.427 0-.767.1-1.021.297-.254.199-.381.438-.381.718 0 .15.033.279.098.39a1.045 1.045 0 0 0 .608.477c.136.042.273.063.412.063.221 0 .432-.043.633-.13.2-.086.376-.201.524-.345.148-.145.266-.31.356-.502a1.4 1.4 0 0 0 .136-.605l-.001-.005Zm3.85-2.525h.073a1.79 1.79 0 0 1 .745-.804c.332-.19.699-.284 1.1-.284.132 0 .228.004.29.012a1.8 1.8 0 0 1 .191.038v1.387a1.289 1.289 0 0 0-.264-.069 2.453 2.453 0 0 0-.338-.017c-.517 0-.932.158-1.249.476-.316.318-.474.736-.474 1.255v3.154h-1.366v-6.061h1.291v.915l.001-.002Zm4.244.197h-1.058V78.9h1.058v-1.856h1.367V78.9h1.49v1.212h-1.49v2.77c0 .153.016.293.05.42a.853.853 0 0 0 .148.318c.14.16.316.242.53.242.13 0 .233-.01.307-.03a1.29 1.29 0 0 0 .234-.094l.419 1.212a3.31 3.31 0 0 1-.542.154 3.288 3.288 0 0 1-.64.056c-.287 0-.542-.046-.762-.139a1.85 1.85 0 0 1-.578-.377c-.352-.363-.53-.855-.53-1.477v-3.053l-.003-.002Zm5.113-.395h.073c.18-.289.436-.53.77-.723a2.185 2.185 0 0 1 1.124-.291c.762 0 1.333.229 1.71.686.377.459.567 1.066.567 1.825v3.75h-1.366V81.4c0-.528-.121-.897-.364-1.107-.242-.21-.56-.315-.953-.315-.238 0-.447.05-.627.15-.18.098-.337.232-.466.4-.132.17-.23.362-.296.582a2.332 2.332 0 0 0-.098.686v3.167h-1.366V78.9h1.29v.816l.002-.001Zm11.011 3.797c-.254.47-.615.863-1.083 1.176-.466.314-1.041.469-1.722.469a3.18 3.18 0 0 1-1.248-.242 2.984 2.984 0 0 1-1.643-1.695 3.45 3.45 0 0 1-.234-1.293c0-.437.073-.85.221-1.242.148-.392.355-.734.621-1.027a2.943 2.943 0 0 1 2.22-.958c.459 0 .885.078 1.249.235.364.157.674.375.928.656.253.28.449.618.584 1.014.136.395.204.829.204 1.298v.111a.571.571 0 0 0-.013.112.415.415 0 0 0-.012.098h-4.639c.025.289.094.54.209.755.115.214.256.391.424.532.168.14.355.244.56.31.204.067.405.098.602.098.393 0 .717-.094.972-.284.254-.19.463-.425.628-.705l1.169.581.003.001Zm-1.266-2.337a1.733 1.733 0 0 0-.117-.414 1.26 1.26 0 0 0-.283-.42 1.628 1.628 0 0 0-.492-.328 1.781 1.781 0 0 0-.731-.137 1.54 1.54 0 0 0-1.016.353 1.73 1.73 0 0 0-.572.946h3.21Zm2.27-2.276h1.291v.914h.073a1.7 1.7 0 0 1 .3-.438c.128-.137.271-.252.432-.348a2.75 2.75 0 0 1 .504-.235 1.58 1.58 0 0 1 .511-.091c.197 0 .365.02.505.055.14.038.266.09.38.155l-.393 1.25a1.276 1.276 0 0 0-.3-.094 2.186 2.186 0 0 0-.4-.03 1.36 1.36 0 0 0-.609.138 1.583 1.583 0 0 0-.486.372c-.14.157-.249.344-.326.56a2.006 2.006 0 0 0-.117.683v3.17h-1.366V78.9Zm-40.12-11.715c0 1.075-.317 1.93-.952 2.568-.713.76-1.65 1.139-2.81 1.139-1.16 0-2.051-.386-2.82-1.16-.77-.773-1.154-1.726-1.154-2.858 0-1.131.384-2.084 1.154-2.858.769-.773 1.71-1.16 2.82-1.16.563 0 1.093.1 1.59.302.5.2.91.483 1.23.849l-.704.71a2.364 2.364 0 0 0-.913-.671 2.998 2.998 0 0 0-1.202-.242c-.833 0-1.539.29-2.116.871-.57.588-.855 1.32-.855 2.203 0 .883.285 1.616.855 2.203.577.58 1.282.871 2.116.871.762 0 1.397-.215 1.902-.644.505-.43.798-1.021.876-1.773h-2.778v-.923h3.708c.035.2.054.394.054.58l-.001-.007Zm.672.903c0-.81.253-1.48.758-2.008.512-.53 1.157-.795 1.934-.795.777 0 1.417.266 1.923.795.512.53.769 1.2.769 2.008s-.257 1.486-.77 2.007c-.505.53-1.145.795-1.922.795-.777 0-1.422-.266-1.934-.795-.505-.53-.758-1.198-.758-2.007Zm.983 0c0 .565.164 1.023.492 1.374.328.352.734.527 1.218.527s.891-.175 1.218-.527c.327-.351.492-.809.492-1.374 0-.566-.164-1.014-.492-1.364a1.604 1.604 0 0 0-1.218-.537c-.478 0-.883.18-1.218.537-.327.352-.492.805-.492 1.364Zm5.001 0c0-.81.253-1.48.758-2.008.512-.53 1.157-.795 1.934-.795.777 0 1.417.266 1.923.795.512.53.769 1.2.769 2.008s-.257 1.486-.77 2.007c-.505.53-1.145.795-1.922.795-.777 0-1.422-.266-1.934-.795-.505-.53-.758-1.198-.758-2.007Zm.983 0c0 .565.164 1.023.492 1.374.328.352.734.527 1.218.527s.891-.175 1.218-.527c.327-.351.492-.809.492-1.374 0-.566-.164-1.014-.492-1.364a1.604 1.604 0 0 0-1.218-.537c-.478 0-.883.18-1.218.537-.328.352-.492.805-.492 1.364Zm7.616 5.125a2.92 2.92 0 0 1-.824-.113 2.614 2.614 0 0 1-.7-.317 2.284 2.284 0 0 1-.54-.484 2.049 2.049 0 0 1-.342-.623l.93-.386c.106.308.291.555.555.742.264.186.569.279.919.279.534 0 .95-.16 1.25-.483.3-.322.449-.766.449-1.332v-.506h-.043c-.185.28-.436.5-.752.662a2.25 2.25 0 0 1-1.03.241c-.684 0-1.273-.268-1.764-.806-.484-.551-.726-1.219-.726-1.999s.242-1.443.726-1.987c.492-.545 1.079-.817 1.763-.817.37 0 .714.08 1.03.241.317.162.568.382.753.662h.043v-.73h.94v5.038c0 .845-.239 1.507-.715 1.988-.484.487-1.125.73-1.922.73Zm.032-3.224c.484 0 .88-.175 1.187-.527.32-.351.481-.809.481-1.375 0-.565-.16-1.005-.481-1.363a1.51 1.51 0 0 0-1.187-.537c-.478 0-.864.18-1.187.537-.32.358-.48.812-.48 1.363 0 .551.16 1.014.48 1.364.32.359.716.538 1.187.538Zm4.787-6.961v7.692h-.983v-7.692h.983Zm3.493 7.864c-.769 0-1.402-.266-1.901-.795-.5-.53-.748-1.2-.748-2.007 0-.809.242-1.47.727-2.004.484-.533 1.103-.8 1.859-.8s1.393.253 1.854.757c.46.506.688 1.212.688 2.122l-.011.107H48.02c.014.515.185.931.513 1.246.328.315.72.472 1.175.472.628 0 1.118-.314 1.474-.945l.876.429c-.235.444-.56.791-.978 1.041-.418.25-.889.377-1.416.377h.002Zm-1.57-3.437h3.003a1.317 1.317 0 0 0-.444-.908c-.266-.24-.625-.36-1.073-.36-.37 0-.689.115-.956.344-.267.229-.444.537-.53.924Zm10.855 3.437c-1.133 0-2.08-.383-2.842-1.15-.756-.767-1.133-1.723-1.133-2.869 0-1.146.377-2.098 1.133-2.858.755-.773 1.701-1.16 2.842-1.16 1.14 0 2.09.42 2.81 1.258l-.705.687c-.548-.666-1.25-.998-2.105-.998s-1.556.286-2.126.86c-.563.565-.845 1.304-.845 2.212 0 .908.282 1.647.845 2.213.569.574 1.278.86 2.126.86.891 0 1.663-.377 2.32-1.129l.714.699a3.7 3.7 0 0 1-1.336 1.015c-.527.24-1.093.36-1.698.36Zm4.893-7.864v7.692h-.983v-7.692h.983Zm.845 5.06c0-.81.252-1.48.758-2.008.512-.53 1.157-.795 1.934-.795.776 0 1.417.266 1.922.795.513.53.77 1.2.77 2.008s-.257 1.486-.77 2.007c-.505.53-1.146.795-1.922.795-.777 0-1.422-.266-1.934-.795-.506-.53-.758-1.198-.758-2.007Zm.983 0c0 .565.164 1.023.492 1.374.327.352.733.527 1.218.527.484 0 .891-.175 1.218-.527.327-.351.491-.809.491-1.374 0-.566-.163-1.014-.491-1.364a1.605 1.605 0 0 0-1.218-.537c-.478 0-.883.18-1.218.537-.327.352-.492.805-.492 1.364Zm9.838 2.632h-.94v-.73h-.043c-.149.258-.38.472-.689.644a1.963 1.963 0 0 1-.966.258c-.64 0-1.134-.185-1.48-.553-.345-.37-.517-.893-.517-1.573v-3.309h.984v3.245c.02.86.451 1.288 1.293 1.288.392 0 .719-.16.983-.477.264-.318.394-.7.394-1.144v-2.912h.984v5.264l-.002-.001Zm3.334.172c-.683 0-1.272-.272-1.762-.817-.485-.55-.727-1.214-.727-1.988 0-.773.242-1.435.727-1.987.491-.545 1.078-.817 1.763-.817.384 0 .734.082 1.052.248.316.164.56.383.731.656h.043l-.043-.73v-2.429h.984v7.692h-.94v-.73h-.044c-.17.271-.414.49-.731.655a2.246 2.246 0 0 1-1.053.247Zm.161-.903c.485 0 .88-.175 1.187-.527.32-.351.48-.809.48-1.375 0-.565-.16-1.005-.48-1.363a1.51 1.51 0 0 0-1.187-.537c-.478 0-.864.18-1.186.537-.32.358-.48.812-.48 1.363 0 .551.16 1.014.48 1.364.32.359.715.538 1.186.538Z"/>
</svg>
