<svg xmlns="http://www.w3.org/2000/svg" width="100" height="100" viewBox="0 0 50 50">
  <path d="M14.281 0C6.418 0 0 6.32 0 14.094c0 2.457.688 4.734 1.813 6.75a23.44 23.44 0 0 0-.438 4.406c0 13.02 10.7 23.563 23.875 23.563 1.375 0 2.715-.122 4.031-.344A14.294 14.294 0 0 0 35.72 50C43.582 50 50 43.684 50 35.906c0-2.117-.52-4.101-1.375-5.906.324-1.543.531-3.121.531-4.75 0-13.012-10.726-23.563-23.906-23.563-1.262 0-2.504.125-3.719.313-2.129-1.246-4.593-2-7.25-2Zm0 2c2.41 0 4.64.668 6.531 1.844.204.133.446.187.688.156a22.423 22.423 0 0 1 3.75-.313c12.113 0 21.906 9.649 21.906 21.563 0 1.59-.164 3.133-.5 4.625a.995.995 0 0 0 .063.688A11.699 11.699 0 0 1 48 35.906C48 42.59 42.52 48 35.719 48c-2.106 0-4.09-.523-5.813-1.438a.986.986 0 0 0-.625-.093 22.51 22.51 0 0 1-4.031.343c-12.113 0-21.875-9.636-21.875-21.562 0-1.484.148-2.941.438-4.344.05-.246.003-.504-.126-.718A11.782 11.782 0 0 1 2 14.093C2 7.418 7.484 2 14.281 2Zm10.813 6.375c-2.633 0-5 .355-7.032 1.094-.007.004-.023-.004-.03 0-2.052.75-3.723 1.89-4.876 3.375a8.34 8.34 0 0 0-1.781 5.187c0 1.977.582 3.754 1.719 5.157 1.086 1.335 2.539 2.382 4.312 3.125 1.688.707 3.77 1.3 6.188 1.812 1.73.36 3.133.695 4.125 1 .879.27 1.57.672 2.062 1.125.399.367.563.73.563 1.406 0 .797-.324 1.324-1.282 1.969-.953.645-2.277 1.031-4.03 1.031-1.286 0-2.274-.203-2.907-.5-.707-.328-1.234-.726-1.563-1.156-.41-.531-.804-1.23-1.187-2.094-.406-.941-.934-1.738-1.625-2.312-.734-.61-1.676-.907-2.656-.907-1.16 0-2.246.372-3.063 1.125-.804.75-1.281 1.79-1.281 2.875 0 1.575.59 3.153 1.656 4.657 1.051 1.5 2.457 2.707 4.125 3.593 2.34 1.227 5.25 1.813 8.657 1.813 2.84 0 5.375-.43 7.53-1.313 2.169-.886 3.907-2.156 5.094-3.812 1.18-1.648 1.778-3.574 1.782-5.625 0-1.691-.34-3.203-1.063-4.469a8.8 8.8 0 0 0-2.906-3.031c-1.168-.75-2.566-1.371-4.156-1.875a55.848 55.848 0 0 0-5.125-1.344c-.016-.004-.016.004-.032 0a86.457 86.457 0 0 1-3.093-.75 9.84 9.84 0 0 1-1.688-.625 3.194 3.194 0 0 1-1.031-.781c-.168-.203-.219-.336-.219-.656 0-.473.18-.836.969-1.344.773-.504 1.895-.781 3.406-.781 1.653 0 2.75.304 3.219.656.652.484 1.266 1.219 1.781 2.188l.032.03c.523.887 1.003 1.544 1.562 2.032.695.602 1.617.844 2.625.844 1.164 0 2.258-.426 3.063-1.25.777-.793 1.25-1.809 1.25-2.875 0-1.028-.305-2.074-.844-3.063-.555-1.015-1.407-1.937-2.5-2.781-1.117-.863-2.496-1.543-4.094-2.031-1.629-.5-3.535-.719-5.656-.719Zm0 2c1.972 0 3.687.23 5.062.656 1.414.434 2.59 1.008 3.469 1.688.926.715 1.578 1.445 1.969 2.156.41.75.593 1.45.593 2.094 0 .547-.183.984-.656 1.468-.445.461-.957.657-1.656.657-.688 0-1.086-.149-1.313-.344-.289-.25-.683-.762-1.124-1.5l-.032-.063c-.62-1.144-1.394-2.097-2.312-2.78-1.067-.802-2.563-1.063-4.438-1.063-1.773 0-3.293.344-4.5 1.125-1.125.726-1.875 1.789-1.875 3 0 .707.242 1.398.688 1.937.437.516 1.008.946 1.687 1.282.657.324 1.344.593 2.032.78.664.18 1.746.446 3.218.782 1.828.387 3.5.82 4.969 1.281 1.457.465 2.707 1.028 3.688 1.657.968.625 1.714 1.406 2.25 2.343.511.899.78 2.043.78 3.469 0 1.668-.46 3.148-1.406 4.469-.933 1.304-2.328 2.351-4.218 3.125-1.856.761-4.145 1.156-6.782 1.156-3.171 0-5.757-.535-7.718-1.563a9.603 9.603 0 0 1-3.407-3h-.03c-.887-1.253-1.282-2.421-1.282-3.5 0-.566.2-.98.656-1.406.442-.406.934-.593 1.688-.593.59 0 1.008.128 1.375.437.367.305.746.824 1.062 1.563l.032.03c.43.973.902 1.805 1.437 2.5.563.735 1.336 1.313 2.281 1.75 1.028.481 2.278.688 3.75.688 2.032 0 3.778-.418 5.157-1.343 1.324-.891 2.156-2.2 2.156-3.657 0-1.11-.434-2.148-1.219-2.875-.758-.699-1.703-1.222-2.813-1.562-1.09-.336-2.546-.664-4.312-1.032-2.332-.492-4.29-1.082-5.813-1.718-1.519-.637-2.68-1.512-3.53-2.563-.833-1.027-1.282-2.27-1.282-3.875 0-1.504.441-2.812 1.344-3.968h.031c.883-1.141 2.18-2.067 3.969-2.72 1.758-.644 3.91-.968 6.375-.968Z"/>
</svg>