<svg xmlns="http://www.w3.org/2000/svg" x="0px" y="0px" width="100" height="100" viewBox="0 0 50 50">
<path d="M 27 4 C 23.145666 4 20 7.1456661 20 11 C 20 11.694215 20.109343 12.364062 20.298828 13 L 5 13 C 3.3550302 13 2 14.35503 2 16 L 2 34 C 2 35.64497 3.3550302 37 5 37 L 16.050781 37 C 16.558532 42.596375 21.274041 47 27 47 C 32.119276 47 36.240954 43.409081 37.460938 38.664062 C 38.643436 39.440841 39.984387 40 41.5 40 C 45.63039 40 49 36.63039 49 32.5 L 49 21 A 1.0001 1.0001 0 0 0 48 20 L 37 20 L 26 20 L 26 17.923828 C 26.327632 17.970927 26.660365 18 27 18 C 30.854334 18 34 14.854334 34 11 C 34 7.1456661 30.854334 4 27 4 z M 27 6 C 29.773666 6 32 8.2263339 32 11 C 32 13.773666 29.773666 16 27 16 C 26.651336 16 26.315457 15.955685 25.988281 15.888672 C 25.927569 14.29544 24.606899 13 23 13 L 22.421875 13 C 22.153458 12.388243 22 11.715897 22 11 C 22 8.2263339 24.226334 6 27 6 z M 42 8 C 40.416667 8 39.101892 8.6297556 38.251953 9.5859375 C 37.402014 10.542119 37 11.777778 37 13 C 37 14.222222 37.402014 15.457881 38.251953 16.414062 C 39.101892 17.370244 40.416667 18 42 18 C 43.583333 18 44.898108 17.370244 45.748047 16.414062 C 46.597986 15.457881 47 14.222222 47 13 C 47 11.777778 46.597986 10.542119 45.748047 9.5859375 C 44.898108 8.6297556 43.583333 8 42 8 z M 42 10 C 43.083333 10 43.768559 10.370244 44.251953 10.914062 C 44.735347 11.457882 45 12.222222 45 13 C 45 13.777778 44.735347 14.542119 44.251953 15.085938 C 43.768559 15.629755 43.083333 16 42 16 C 40.916667 16 40.231441 15.629756 39.748047 15.085938 C 39.264653 14.542118 39 13.777778 39 13 C 39 12.222222 39.264653 11.457881 39.748047 10.914062 C 40.231441 10.370245 40.916667 10 42 10 z M 5 15 L 21.757812 15 L 23 15 C 23.56503 15 24 15.43497 24 16 L 24 16.365234 A 1.0001 1.0001 0 0 0 24 16.919922 L 24 20.832031 A 1.0001 1.0001 0 0 0 24 21.158203 L 24 34 C 24 34.56503 23.56503 35 23 35 L 17.167969 35 A 1.0001 1.0001 0 0 0 16.841797 35 L 5 35 C 4.4349698 35 4 34.56503 4 34 L 4 16 C 4 15.43497 4.4349698 15 5 15 z M 9 19 L 9 21 L 13 21 L 13 31 L 15 31 L 15 21 L 19 21 L 19 19 L 9 19 z M 26 22 L 36 22 L 36 36 C 36 40.982593 31.982593 45 27 45 C 22.356014 45 18.554378 41.508579 18.058594 37 L 23 37 C 24.64497 37 26 35.64497 26 34 L 26 22 z M 38 22 L 47 22 L 47 32.5 C 47 35.54961 44.54961 38 41.5 38 C 40.097088 38 38.851397 37.45098 37.880859 36.591797 C 37.89251 36.384961 38 36.209688 38 36 L 38 22 z"></path>
</svg>
